<svg width="22" height="31" viewBox="0 0 22 31" fill="none" xmlns="http://www.w3.org/2000/svg">
<path d="M1.03063 4.13794C0.879584 5.36947 1.2119 8.57144 3.74955 11.5271C6.92162 15.2217 7.37478 13.6383 7.82793 18.9163C7.37478 19.7959 6.64974 22.1886 7.37478 24.722C7.37478 25.6017 7.37478 27.5721 7.37478 28.4166C7.37478 29.4722 8.73424 30 11 30" stroke="#2D2D2D" stroke-width="2"/>
<path d="M20.9694 4.13794C21.1204 5.36947 20.7881 8.57144 18.2505 11.5271C15.0784 15.2217 14.6252 13.6383 14.1721 18.9163C14.6252 19.7959 15.3503 22.1886 14.6252 24.722C14.6252 25.6017 14.6252 27.5721 14.6252 28.4166C14.6252 29.4722 13.2658 30 11 30" stroke="#2D2D2D" stroke-width="2"/>
<ellipse cx="11" cy="4.65517" rx="11" ry="4.65517" fill="#272727"/>
</svg>
