<svg width="27" height="22" viewBox="0 0 27 22" fill="none" xmlns="http://www.w3.org/2000/svg">
<path d="M10.6071 1.99984C9.07031 1.99984 7.63393 2.27065 6.29799 2.81228C4.96205 3.3539 3.89983 4.08822 3.11133 5.01523C2.32282 5.94224 1.92857 6.93695 1.92857 7.99937C1.92857 8.85347 2.19475 9.67632 2.72712 10.4679C3.25949 11.2595 4.00781 11.947 4.9721 12.5303L6.43359 13.4052L5.90625 14.7176C6.24777 14.5093 6.55915 14.3062 6.8404 14.1083L7.50335 13.6239L8.3019 13.7802C9.08538 13.926 9.8538 13.9989 10.6071 13.9989C12.144 13.9989 13.5804 13.7281 14.9163 13.1865C16.2522 12.6448 17.3145 11.9105 18.103 10.9835C18.8915 10.0565 19.2857 9.06178 19.2857 7.99937C19.2857 6.93695 18.8915 5.94224 18.103 5.01523C17.3145 4.08822 16.2522 3.3539 14.9163 2.81228C13.5804 2.27065 12.144 1.99984 10.6071 1.99984ZM10.6071 0C12.5257 0 14.3011 0.356743 15.9333 1.07023C17.5656 1.78371 18.8538 2.75499 19.798 3.98406C20.7422 5.21313 21.2143 6.55157 21.2143 7.99937C21.2143 9.44717 20.7422 10.7856 19.798 12.0147C18.8538 13.2437 17.5656 14.215 15.9333 14.9285C14.3011 15.642 12.5257 15.9987 10.6071 15.9987C9.7433 15.9987 8.85938 15.9154 7.95536 15.7488C6.70982 16.6654 5.31362 17.332 3.76674 17.7486C3.40513 17.8423 2.97321 17.9257 2.47098 17.9986H2.42578C2.31529 17.9986 2.21233 17.9569 2.11691 17.8736C2.02148 17.7903 1.96373 17.6809 1.94364 17.5455C1.93359 17.5142 1.92857 17.4804 1.92857 17.4439C1.92857 17.4075 1.93108 17.3736 1.9361 17.3424C1.94113 17.3111 1.95117 17.2799 1.96624 17.2486L2.00391 17.1705L2.05664 17.0846L2.11691 17.0065L2.18471 16.9284L2.24498 16.858C2.2952 16.7955 2.41071 16.6654 2.59152 16.4675C2.77232 16.2695 2.9029 16.1159 2.98326 16.0065C3.06362 15.8972 3.17662 15.7462 3.32227 15.5535C3.46791 15.3608 3.59347 15.1603 3.69894 14.9519C3.80441 14.7436 3.90737 14.5145 4.00781 14.2645C2.76228 13.5146 1.78292 12.5928 1.06975 11.4991C0.356585 10.4054 0 9.23885 0 7.99937C0 6.55157 0.472098 5.21313 1.41629 3.98406C2.36049 2.75499 3.64872 1.78371 5.28097 1.07023C6.91323 0.356743 8.68862 0 10.6071 0ZM22.9922 18.2642C23.0926 18.5142 23.1956 18.7433 23.3011 18.9516C23.4065 19.1599 23.5321 19.3605 23.6777 19.5531C23.8234 19.7458 23.9364 19.8969 24.0167 20.0062C24.0971 20.1156 24.2277 20.2692 24.4085 20.4671C24.5893 20.665 24.7048 20.7952 24.755 20.8577C24.7651 20.8681 24.7852 20.8916 24.8153 20.928C24.8454 20.9645 24.868 20.9905 24.8831 21.0062C24.8982 21.0218 24.9182 21.0478 24.9434 21.0843C24.9685 21.1207 24.986 21.1494 24.9961 21.1702L25.0338 21.2483L25.0639 21.3421L25.0714 21.4436L25.0564 21.5452C25.0262 21.691 24.9609 21.8056 24.8605 21.8889C24.76 21.9722 24.6496 22.0087 24.529 21.9983C24.0268 21.9254 23.5949 21.842 23.2333 21.7483C21.6864 21.3316 20.2902 20.665 19.0446 19.7484C18.1406 19.9151 17.2567 19.9984 16.3929 19.9984C13.6708 19.9984 11.3002 19.311 9.28125 17.9361C9.86384 17.9777 10.3058 17.9986 10.6071 17.9986C12.2243 17.9986 13.7762 17.7642 15.2628 17.2955C16.7494 16.8268 18.0753 16.155 19.2405 15.28C20.4961 14.3218 21.4604 13.2177 22.1334 11.9678C22.8064 10.7179 23.1429 9.39509 23.1429 7.99937C23.1429 7.19735 23.0273 6.40574 22.7963 5.62456C24.0921 6.36408 25.1166 7.29109 25.87 8.40559C26.6233 9.52008 27 10.7179 27 11.9991C27 13.249 26.6434 14.4181 25.9302 15.5066C25.2171 16.595 24.2377 17.5142 22.9922 18.2642Z" fill="black"/>
</svg>
