<svg width="34" height="34" viewBox="0 0 34 34" fill="none" xmlns="http://www.w3.org/2000/svg">
<g clip-path="url(#clip0)">
<path d="M32.6055 8.56538V25.4348C32.6055 26.2715 32.1239 27.0338 31.3678 27.3937L17.9347 33.7888C17.6394 33.9298 17.3193 34 17 34C16.6807 34 16.3614 33.9298 16.066 33.7888L2.63228 27.3937C1.87611 27.0338 1.39453 26.2715 1.39453 25.4348V8.56538C1.39453 8.13068 1.52416 7.71618 1.75585 7.36754C1.96875 7.04494 2.26923 6.77878 2.63268 6.60659L16.066 0.211007C16.6568 -0.0703561 17.3433 -0.0703561 17.9348 0.211007L31.3681 6.60659C31.7316 6.77872 32.0313 7.04494 32.2442 7.36754C32.4758 7.71618 32.6055 8.13062 32.6055 8.56538Z" fill="#111111"/>
<path d="M32.2442 7.36754C32.0313 7.04494 31.7315 6.77878 31.3681 6.60659L17.9347 0.211007C17.3432 -0.0703561 16.6568 -0.0703561 16.0659 0.211007L15.9736 0.254968L29.3146 6.60659C29.6781 6.77872 29.9779 7.04494 30.1907 7.36754C30.4224 7.71618 30.5521 8.13062 30.5521 8.56538V25.4348C30.5521 26.2715 30.0705 27.0338 29.3144 27.3937L15.9736 33.7448L16.0659 33.7888C16.3614 33.9298 16.6807 34 17 34C17.3193 34 17.6394 33.9298 17.9347 33.7888L31.3678 27.3937C32.1239 27.0338 32.6055 26.2715 32.6055 25.4348V8.56538C32.6055 8.13062 32.4759 7.71618 32.2442 7.36754Z" fill="#121212"/>
<path d="M17 14.6253V34.0001C16.6807 34.0001 16.3614 33.9299 16.066 33.7888L2.63228 27.3937C1.87611 27.0338 1.39453 26.2716 1.39453 25.4348V8.56538C1.39453 8.13068 1.52416 7.71617 1.75585 7.36754L17 14.6253Z" fill="#0F0F0F"/>
<path d="M32.6055 8.56538V25.4353C32.6055 26.2628 32.1334 27.0186 31.3905 27.3832C31.3833 27.3868 31.3753 27.3904 31.3681 27.394L17.9347 33.7889C17.6394 33.9299 17.3193 34.0001 17 34.0001V14.6253L32.2442 7.36754C32.4758 7.71617 32.6055 8.13061 32.6055 8.56538Z" fill="#121212"/>
<path d="M32.2442 7.36754L30.518 8.18938C30.5396 8.3123 30.5521 8.43781 30.5521 8.56538V25.4353C30.5521 26.2628 30.08 27.0186 29.3371 27.3832C29.3298 27.3868 29.3219 27.3904 29.3146 27.394L17 33.2564V34.0001C17.3193 34.0001 17.6394 33.9299 17.9347 33.7888L31.3681 27.394C31.3753 27.3904 31.3833 27.3867 31.3905 27.3831C32.1334 27.0186 32.6055 26.2627 32.6055 25.4352V8.56538C32.6055 8.13061 32.4758 7.71617 32.2442 7.36754Z" fill="#131313"/>
<path d="M27.1752 20.5322C27.3066 19.5605 26.8324 18.6943 26.1162 18.5974C25.3999 18.5005 24.7127 19.2098 24.5813 20.1815C24.4499 21.1532 24.924 22.0195 25.6403 22.1163C26.3566 22.2132 27.0438 21.504 27.1752 20.5322Z" fill="#F1F1F1"/>
<path d="M12.7623 19.2575C13.4806 19.2179 14.0193 18.3918 13.9653 17.4122C13.9114 16.4327 13.2853 15.6706 12.567 15.7102C11.8486 15.7497 11.31 16.5759 11.3639 17.5554C11.4178 18.535 12.0439 19.297 12.7623 19.2575Z" fill="#F1F1F1"/>
<path d="M5.3117 25.7017C6.03007 25.6621 6.5687 24.836 6.51477 23.8564C6.46084 22.8769 5.83477 22.1148 5.1164 22.1544C4.39803 22.1939 3.85939 23.0201 3.91332 23.9996C3.96725 24.9792 4.59333 25.7412 5.3117 25.7017Z" fill="#F1F1F1"/>
<path d="M10.7771 8.22C11.7567 8.16607 12.5187 7.54 12.4792 6.82163C12.4396 6.10326 11.6135 5.56462 10.6339 5.61855C9.65432 5.67248 8.89229 6.29856 8.93184 7.01693C8.97139 7.7353 9.79755 8.27393 10.7771 8.22Z" fill="#F1F1F1"/>
<path d="M16.9269 5.17755C17.9065 5.12362 18.6685 4.49754 18.6289 3.77918C18.5894 3.06081 17.7632 2.52217 16.7837 2.5761C15.8041 2.63003 15.0421 3.2561 15.0816 3.97447C15.1212 4.69284 15.9473 5.23148 16.9269 5.17755Z" fill="#F1F1F1"/>
<path d="M23.3692 8.43082C24.3487 8.37689 25.1108 7.75082 25.0712 7.03245C25.0317 6.31407 24.2055 5.77544 23.2259 5.82937C22.2464 5.8833 21.4843 6.50937 21.5239 7.22774C21.5634 7.94611 22.3896 8.48475 23.3692 8.43082Z" fill="#F1F1F1"/>
<path d="M17.364 11.2561C18.3436 11.2021 19.1056 10.5761 19.0661 9.85768C19.0265 9.13931 18.2004 8.60068 17.2208 8.65461C16.2412 8.70854 15.4792 9.33461 15.5188 10.053C15.5583 10.7714 16.3845 11.31 17.364 11.2561Z" fill="#F1F1F1"/>
</g>
<defs>
<clipPath id="clip0">
<rect width="34" height="34" fill="white"/>
</clipPath>
</defs>
</svg>
