<svg width="24" height="34" viewBox="0 0 24 34" fill="none" xmlns="http://www.w3.org/2000/svg">
<path fill-rule="evenodd" clip-rule="evenodd" d="M22.094 7.50391C21.5438 7.50391 21.0979 7.94989 21.0979 8.5V23.375C21.0979 23.9975 20.5914 24.5039 19.969 24.5039C19.3465 24.5039 18.84 23.9975 18.84 23.375V15.4062C18.84 13.6853 17.4399 12.2852 15.719 12.2852H15.5367C14.7029 12.2852 13.9191 12.6099 13.3297 13.1994C11.7061 14.8229 11.7848 14.7334 11.7072 14.8477C11.5947 14.9241 11.6943 14.8348 9.99387 16.5352H8.7463V8.93277C10.6695 8.81311 12.7468 8.31818 13.9639 7.83109C14.4742 7.62702 14.7221 7.04829 14.5187 6.53769C14.3152 6.02716 13.7359 5.77821 13.2251 5.98088C13.2139 5.98539 12.3321 6.33184 11.0078 6.6136L11.4 1.06629C11.4407 0.490742 10.9845 0 10.4065 0H5.09395C4.51695 0 4.05961 0.48968 4.10032 1.06635L4.49251 6.61366C3.16824 6.33197 2.2867 5.98559 2.27634 5.98148C1.76547 5.77695 1.18588 6.02557 0.981548 6.5363C0.777216 7.0471 1.02571 7.62682 1.53644 7.83109C2.72133 8.3053 4.79254 8.81071 6.75404 8.93277V16.5352H5.50647L3.93888 14.9676C3.54994 14.5786 2.91922 14.5786 2.53021 14.9676C2.1412 15.3565 2.1412 15.9872 2.53021 16.3762L4.09779 17.9438V23.3089C4.09779 23.382 4.03829 23.4414 3.96525 23.4414C2.89591 23.4414 1.98953 24.2415 1.85678 25.3036L0.91793 32.8814C0.844352 33.4751 1.30793 34 1.90645 34H13.594C14.1923 34 14.6561 33.4753 14.5825 32.8814L13.6434 25.3026C13.5108 24.2415 12.6044 23.4414 11.5351 23.4414C11.462 23.4414 11.4025 23.3819 11.4025 23.3089V17.9438C13.0979 16.2485 13.0122 16.3451 13.0901 16.2305C13.2043 16.1529 13.1146 16.2317 14.7385 14.6079C14.9516 14.3947 15.2351 14.2773 15.5367 14.2773H15.719C16.3414 14.2773 16.8479 14.7837 16.8479 15.4062V23.3749C16.8479 25.0959 18.248 26.496 19.969 26.496C21.6899 26.496 23.09 25.0959 23.09 23.3749V8.5C23.09 7.94989 22.6441 7.50391 22.094 7.50391ZM8.98934 6.91754L9.33745 1.99219H6.16296L6.511 6.91754C7.33789 6.98886 8.1254 6.99185 8.98934 6.91754ZM9.41036 20.7852V18.5273H6.09005V20.7852H9.41036ZM11.6665 25.5486C11.6583 25.4835 11.6018 25.4336 11.5351 25.4336C10.3636 25.4336 9.41036 24.4804 9.41029 23.3089V22.7773H6.08998V23.3089C6.08998 24.4804 5.13685 25.4336 3.96525 25.4336C3.89858 25.4336 3.84206 25.4835 3.83376 25.5497L3.03357 32.0078H12.4668L11.6665 25.5486Z" fill="#23C220"/>
<path d="M11.5351 25.4336C11.6018 25.4336 11.6583 25.4835 11.6665 25.5486L12.4668 32.0078H3.03357L3.83376 25.5497C3.84206 25.4835 3.89858 25.4336 3.96525 25.4336C5.13685 25.4336 6.08998 24.4804 6.08998 23.3089V22.7773H9.41029V23.3089C9.41036 24.4804 10.3636 25.4336 11.5351 25.4336Z" fill="#23C220"/>
<path d="M9.41036 18.5273V20.7852H6.09005V18.5273H9.41036Z" fill="#23C220"/>
<path d="M9.33745 1.99219L8.98934 6.91754C8.1254 6.99185 7.33789 6.98886 6.511 6.91754L6.16296 1.99219H9.33745Z" fill="#23C220"/>
</svg>
