<svg width="24" height="34" viewBox="0 0 24 34" fill="none" xmlns="http://www.w3.org/2000/svg">
<path fill-rule="evenodd" clip-rule="evenodd" d="M22.0941 7.50391C21.544 7.50391 21.098 7.94989 21.098 8.5V23.375C21.098 23.9975 20.5916 24.5039 19.9691 24.5039C19.3466 24.5039 18.8402 23.9975 18.8402 23.375V15.4062C18.8402 13.6853 17.4401 12.2852 15.7191 12.2852H15.5368C14.7031 12.2852 13.9193 12.6099 13.3298 13.1994C11.7062 14.8229 11.785 14.7334 11.7073 14.8477C11.5948 14.9241 11.6944 14.8348 9.99399 16.5352H8.74642V8.93277C10.6696 8.81311 12.7469 8.31818 13.964 7.83109C14.4744 7.62702 14.7223 7.04829 14.5188 6.53769C14.3153 6.02716 13.736 5.77821 13.2253 5.98088C13.214 5.98539 12.3322 6.33184 11.008 6.6136L11.4001 1.06629C11.4409 0.490742 10.9846 0 10.4066 0H5.09408C4.51707 0 4.05973 0.48968 4.10044 1.06635L4.49264 6.61366C3.16836 6.33197 2.28682 5.98559 2.27646 5.98148C1.7656 5.77695 1.186 6.02557 0.98167 6.5363C0.777338 7.0471 1.02583 7.62682 1.53656 7.83109C2.72145 8.3053 4.79266 8.81071 6.75417 8.93277V16.5352H5.50659L3.93901 14.9676C3.55006 14.5786 2.91934 14.5786 2.53033 14.9676C2.14132 15.3565 2.14132 15.9872 2.53033 16.3762L4.09792 17.9438V23.3089C4.09792 23.382 4.03842 23.4414 3.96537 23.4414C2.89603 23.4414 1.98965 24.2415 1.8569 25.3036L0.918052 32.8814C0.844474 33.4751 1.30806 34 1.90658 34H13.5941C14.1924 34 14.6562 33.4753 14.5826 32.8814L13.6435 25.3026C13.5109 24.2415 12.6046 23.4414 11.5352 23.4414C11.4621 23.4414 11.4027 23.3819 11.4027 23.3089V17.9438C13.098 16.2485 13.0123 16.3451 13.0902 16.2305C13.2045 16.1529 13.1148 16.2317 14.7386 14.6079C14.9518 14.3947 15.2352 14.2773 15.5368 14.2773H15.7191C16.3416 14.2773 16.848 14.7837 16.848 15.4062V23.3749C16.848 25.0959 18.2481 26.496 19.9691 26.496C21.6901 26.496 23.0902 25.0959 23.0902 23.3749V8.5C23.0902 7.94989 22.6442 7.50391 22.0941 7.50391ZM8.98947 6.91754L9.33757 1.99219H6.16308L6.51112 6.91754C7.33801 6.98886 8.12552 6.99185 8.98947 6.91754ZM9.41048 20.7852V18.5273H6.09017V20.7852H9.41048ZM11.6666 25.5486C11.6585 25.4835 11.6019 25.4336 11.5352 25.4336C10.3637 25.4336 9.41048 24.4804 9.41042 23.3089V22.7773H6.0901V23.3089C6.0901 24.4804 5.13697 25.4336 3.96537 25.4336C3.8987 25.4336 3.84219 25.4835 3.83388 25.5497L3.03369 32.0078H12.467L11.6666 25.5486Z" fill="#C22020"/>
<path d="M11.5352 25.4336C11.6019 25.4336 11.6585 25.4835 11.6666 25.5486L12.467 32.0078H3.03369L3.83388 25.5497C3.84219 25.4835 3.8987 25.4336 3.96537 25.4336C5.13697 25.4336 6.0901 24.4804 6.0901 23.3089V22.7773H9.41042V23.3089C9.41048 24.4804 10.3637 25.4336 11.5352 25.4336Z" fill="#C22020"/>
<path d="M9.41048 18.5273V20.7852H6.09017V18.5273H9.41048Z" fill="#C22020"/>
<path d="M9.33757 1.99219L8.98947 6.91754C8.12552 6.99185 7.33801 6.98886 6.51112 6.91754L6.16308 1.99219H9.33757Z" fill="#C22020"/>
</svg>
