<svg width="27" height="27" viewBox="0 0 27 27" fill="none" xmlns="http://www.w3.org/2000/svg">
<path fill-rule="evenodd" clip-rule="evenodd" d="M21.8505 20.403C20.7528 19.3052 20.7193 17.5638 21.3959 16.1665C23.4266 11.9721 22.7015 6.77874 19.2205 3.29771C14.8235 -1.09924 7.69467 -1.09924 3.29771 3.29771C-1.09924 7.69467 -1.09924 14.8235 3.29771 19.2205C6.77874 22.7015 11.9721 23.4266 16.1665 21.3959C17.5638 20.7193 19.3052 20.7528 20.403 21.8506L24.8287 26.2762C25.2284 26.676 25.8765 26.676 26.2762 26.2762C26.676 25.8765 26.676 25.2284 26.2762 24.8287L21.8505 20.403ZM17.773 4.74524C21.3705 8.34275 21.3705 14.1755 17.773 17.773C14.1755 21.3705 8.34275 21.3705 4.74524 17.773C1.14773 14.1755 1.14773 8.34275 4.74524 4.74524C8.34275 1.14773 14.1755 1.14773 17.773 4.74524Z" fill="#121212"/>
</svg>
