<svg width="29" height="29" viewBox="0 0 29 29" fill="none" xmlns="http://www.w3.org/2000/svg">
<path d="M11.7812 27.1875C9.13737 27.1875 6.60178 26.1372 4.73228 24.2677C2.86278 22.3982 1.8125 19.8626 1.8125 17.2188C1.8125 14.5749 2.86278 12.0393 4.73228 10.1698C6.60178 8.30028 9.13737 7.25 11.7812 7.25C12.0216 7.25 12.2521 7.34548 12.4221 7.51543C12.592 7.68539 12.6875 7.9159 12.6875 8.15625V16.3125H20.8438C21.0841 16.3125 21.3146 16.408 21.4846 16.5779C21.6545 16.7479 21.75 16.9784 21.75 17.2188C21.75 19.8626 20.6997 22.3982 18.8302 24.2677C16.9607 26.1372 14.4251 27.1875 11.7812 27.1875ZM10.875 9.11688C9.34816 9.28675 7.90034 9.88439 6.69823 10.841C5.49613 11.7976 4.58863 13.0742 4.08023 14.5239C3.57182 15.9736 3.48318 17.5374 3.8245 19.0353C4.16583 20.5331 4.92325 21.9041 6.00955 22.9904C7.09585 24.0767 8.46687 24.8342 9.96473 25.1755C11.4626 25.5168 13.0264 25.4282 14.4761 24.9198C15.9258 24.4114 17.2024 23.5039 18.159 22.3018C19.1156 21.0997 19.7133 19.6518 19.8831 18.125H12.6875C12.2068 18.125 11.7458 17.934 11.4059 17.5941C11.066 17.2542 10.875 16.7932 10.875 16.3125V9.11688Z" fill="black"/>
<path d="M25.375 12.6875H17.2188C16.738 12.6875 16.277 12.4965 15.9371 12.1566C15.5972 11.8167 15.4062 11.3557 15.4062 10.875V2.71875C15.4062 2.4784 15.5017 2.24789 15.6717 2.07793C15.8416 1.90798 16.0721 1.8125 16.3125 1.8125C18.9564 1.8125 21.492 2.86278 23.3615 4.73228C25.231 6.60178 26.2812 9.13737 26.2812 11.7812C26.2812 12.0216 26.1858 12.2521 26.0158 12.4221C25.8459 12.592 25.6154 12.6875 25.375 12.6875ZM17.2188 10.875H24.4144C24.2081 9.0376 23.3838 7.32479 22.0764 6.01739C20.769 4.71 19.0562 3.8856 17.2188 3.67937V10.875Z" fill="black"/>
<path d="M22.04 4.64L16.24 2.9V11.6H25.52V10.44L22.04 4.64Z" fill="black"/>
</svg>
