<svg width="22" height="21" viewBox="0 0 22 21" fill="none" xmlns="http://www.w3.org/2000/svg">
<path d="M0 21L1.90092 13.8145L13.2304 3L18.8571 8.37097L7.52765 19.1855L0 21ZM3.26958 14.5403L2.12903 18.9677L6.76728 17.879L16.7281 8.37097L13.2304 5.03226L3.26958 14.5403Z" fill="black"/>
<path d="M6.67481 19C6.13603 16.8571 4.34011 15.1429 2.09521 14.6286L2.54419 13C5.41766 13.6857 7.66256 15.8286 8.38093 18.5714L6.67481 19Z" fill="black"/>
<path d="M15.1896 5.42241L16.3193 6.5L6.36773 16L5.23804 14.9255L15.1896 5.42241Z" fill="black"/>
<path d="M1.04761 20L3.14285 19.5172C2.9261 18.7586 2.3481 18.2069 1.55335 18L1.04761 20Z" fill="black"/>
<path d="M19.5257 8L13.6191 2.30769L16.0137 0L16.4128 0.0769234C19.2863 0.461539 21.5212 2.61538 21.9203 5.38462L22.0001 5.76923L19.5257 8ZM15.8541 2.30769L19.5257 5.84615L20.2441 5.15385C19.845 3.38462 18.4083 2 16.5724 1.61538L15.8541 2.30769Z" fill="black"/>
</svg>
