<svg width="20" height="21" viewBox="0 0 20 21" fill="none" xmlns="http://www.w3.org/2000/svg">
<path d="M11.1388 19.1194L9.54777 19.915C9.01882 20.1795 8.39646 19.7948 8.39646 19.2034V13.5858C8.39646 13.4199 8.34465 13.2583 8.24828 13.1234L1.14837 3.18349C0.814843 2.71655 1.07219 2.06064 1.63526 1.9501C8.07333 0.686287 12.2443 0.683305 18.3572 1.94116C18.9155 2.05605 19.1666 2.70768 18.8352 3.17151L11.7268 13.1234C11.6304 13.2583 11.5786 13.4205 11.5786 13.5863V18.4073C11.5786 18.7086 11.4084 18.9847 11.1388 19.1194Z" stroke="black"/>
<path d="M3.62305 3.96592C3.62305 3.70078 3.90404 3.52882 4.14418 3.64121C8.04046 5.46475 11.7736 5.40773 15.8338 3.62273C16.0757 3.51639 16.3516 3.69081 16.3516 3.95506C16.3516 4.09381 16.2713 4.22081 16.1455 4.27932C11.9368 6.23659 8.0209 6.38938 3.8166 4.2807C3.69789 4.22116 3.62305 4.09873 3.62305 3.96592Z" fill="black"/>
</svg>
