<svg width="27" height="27" viewBox="0 0 27 27" fill="none" xmlns="http://www.w3.org/2000/svg">
<path d="M26.3249 11.691C26.3241 11.6904 26.3235 11.6895 26.3229 11.6889L15.309 0.675455C14.8395 0.205788 14.2153 -0.0527344 13.5514 -0.0527344C12.8875 -0.0527344 12.2633 0.205788 11.7937 0.675455L0.785567 11.6834C0.781859 11.6871 0.777945 11.691 0.774443 11.6947C-0.189609 12.6643 -0.187961 14.2375 0.779181 15.2046C1.22104 15.6467 1.80441 15.9025 2.42837 15.9295C2.45391 15.932 2.47946 15.9332 2.50521 15.9332H2.94397V24.0383C2.94397 25.6423 4.24915 26.9473 5.85323 26.9473H10.1622C10.5991 26.9473 10.9532 26.593 10.9532 26.1563V19.8018C10.9532 19.0699 11.5488 18.4746 12.2807 18.4746H14.8222C15.5541 18.4746 16.1494 19.0699 16.1494 19.8018V26.1563C16.1494 26.593 16.5035 26.9473 16.9404 26.9473H21.2494C22.8537 26.9473 24.1587 25.6423 24.1587 24.0383V15.9332H24.5657C25.2294 15.9332 25.8536 15.6747 26.3235 15.2048C27.2916 14.2362 27.2921 12.6602 26.3249 11.691ZM25.2047 14.0863C25.034 14.2571 24.8069 14.3512 24.5657 14.3512H23.3677C22.9308 14.3512 22.5766 14.7053 22.5766 15.1422V24.0383C22.5766 24.77 21.9813 25.3653 21.2494 25.3653H17.7315V19.8018C17.7315 18.1977 16.4265 16.8925 14.8222 16.8925H12.2807C10.6764 16.8925 9.37119 18.1977 9.37119 19.8018V25.3653H5.85323C5.12154 25.3653 4.52601 24.77 4.52601 24.0383V15.1422C4.52601 14.7053 4.1719 14.3512 3.73499 14.3512H2.55753C2.54517 14.3504 2.53301 14.3498 2.52045 14.3495C2.28479 14.3454 2.06376 14.2519 1.89814 14.0861C1.54589 13.7338 1.54589 13.1605 1.89814 12.8081C1.89835 12.8081 1.89835 12.8079 1.89855 12.8077L1.89917 12.8071L12.9126 1.794C13.0832 1.62323 13.31 1.5293 13.5514 1.5293C13.7926 1.5293 14.0194 1.62323 14.1902 1.794L25.2012 12.8048C25.2029 12.8064 25.2047 12.8081 25.2064 12.8097C25.5568 13.1626 25.5561 13.7347 25.2047 14.0863Z" fill="black"/>
</svg>
