<svg width="27" height="25" viewBox="0 0 27 25" fill="none" xmlns="http://www.w3.org/2000/svg">
<path d="M22.9908 9.80395L22.6428 9.915V10.2803V20.0516C22.6401 22.1006 20.7613 23.8545 18.3209 23.8571H4.82194C2.38167 23.8545 0.502926 22.1008 0.5 20.0519V7.99905C0.502926 5.95013 2.38167 4.19648 4.82194 4.19389L15.766 4.19389H16.1058L16.2309 3.87797C16.9621 2.03142 18.9418 0.752707 21.2138 0.750001C23.4749 0.756867 25.445 2.02729 26.1798 3.86315C27.1306 6.2385 25.768 8.91776 22.9908 9.80395Z" stroke="black"/>
<rect x="3" y="8" width="13" height="2" rx="1" fill="black"/>
<rect x="3" y="12" width="17" height="1" rx="0.5" fill="black"/>
<rect x="3" y="15" width="17" height="1" rx="0.5" fill="black"/>
<rect x="3" y="18" width="17" height="1" rx="0.5" fill="black"/>
<rect x="3" y="21" width="17" height="1" rx="0.5" fill="black"/>
<rect x="3" y="24" width="17" height="1" rx="0.5" fill="black"/>
</svg>
