<svg width="23" height="25" viewBox="0 0 23 25" fill="none" xmlns="http://www.w3.org/2000/svg">
<path d="M11.0928 11.8625C12.8796 11.8625 14.4266 11.2904 15.691 10.1614C16.955 9.0327 17.596 7.65162 17.596 6.05609C17.596 4.46111 16.9552 3.07984 15.6908 1.95074C14.4264 0.822185 12.8794 0.25 11.0928 0.25C9.30582 0.25 7.75902 0.822185 6.49483 1.95092C5.23065 3.07966 4.5896 4.46092 4.5896 6.05609C4.5896 7.65162 5.23065 9.03289 6.49483 10.1616C7.75943 11.2902 9.30644 11.8625 11.0928 11.8625ZM7.61379 2.94981C8.58382 2.08372 9.72173 1.66271 11.0928 1.66271C12.4637 1.66271 13.6018 2.08372 14.5721 2.94981C15.5421 3.81609 16.0138 4.83226 16.0138 6.05609C16.0138 7.28028 15.5421 8.29628 14.5721 9.16255C13.6018 10.0288 12.4637 10.4498 11.0928 10.4498C9.72214 10.4498 8.58423 10.0286 7.61379 9.16255C6.64356 8.29646 6.17184 7.28028 6.17184 6.05609C6.17184 4.83226 6.64356 3.81609 7.61379 2.94981Z" fill="black"/>
<path d="M22.4717 18.7872C22.4352 18.3175 22.3615 17.8051 22.2529 17.264C22.1433 16.7188 22.0022 16.2035 21.8333 15.7324C21.6586 15.2456 21.4215 14.7648 21.128 14.3041C20.8237 13.8259 20.4661 13.4095 20.0649 13.0669C19.6452 12.7084 19.1315 12.4202 18.5374 12.21C17.9454 12.0008 17.2893 11.8949 16.5875 11.8949C16.3118 11.8949 16.0453 11.9959 15.5305 12.2951C15.2137 12.4796 14.8431 12.6929 14.4295 12.9289C14.0758 13.1301 13.5966 13.3186 13.0048 13.4893C12.4274 13.6561 11.8412 13.7407 11.2623 13.7407C10.6839 13.7407 10.0976 13.6561 9.51981 13.4893C8.92861 13.3188 8.44926 13.1303 8.09618 12.9291C7.68646 12.6953 7.31567 12.482 6.99412 12.2949C6.47975 11.9957 6.21319 11.8947 5.93757 11.8947C5.23555 11.8947 4.57966 12.0008 3.98784 12.2101C3.39416 12.42 2.88021 12.7082 2.46019 13.067C2.05891 13.4099 1.70131 13.8261 1.39726 14.3041C1.10413 14.7648 0.866823 15.2454 0.69214 15.7326C0.523431 16.2036 0.382325 16.7188 0.272736 17.264C0.163971 17.8043 0.0904314 18.3169 0.0539705 18.7878C0.0181275 19.2481 0 19.7272 0 20.2113C0 21.4697 0.448037 22.4885 1.33155 23.2398C2.20414 23.9812 3.35853 24.3571 4.76279 24.3571H17.7635C19.1673 24.3571 20.3217 23.9812 21.1945 23.2398C22.0782 22.489 22.5263 21.4699 22.5263 20.2111C22.5261 19.7254 22.5077 19.2463 22.4717 18.7872ZM20.1036 22.2163C19.527 22.7062 18.7615 22.9444 17.7633 22.9444H4.76279C3.76434 22.9444 2.99886 22.7062 2.42249 22.2164C1.85704 21.7359 1.58224 21.0798 1.58224 20.2113C1.58224 19.7596 1.59893 19.3136 1.6323 18.8854C1.66484 18.4653 1.73138 18.0039 1.83005 17.5135C1.92749 17.0293 2.0515 16.5748 2.19899 16.1634C2.3405 15.7689 2.53352 15.3782 2.77289 15.0019C3.00133 14.6433 3.26418 14.3355 3.55422 14.0876C3.82552 13.8557 4.16747 13.6659 4.57039 13.5235C4.94303 13.3918 5.36182 13.3197 5.81645 13.3089C5.87186 13.3352 5.97053 13.3854 6.13038 13.4785C6.45565 13.6677 6.83056 13.8837 7.24502 14.12C7.71221 14.3859 8.31413 14.6261 9.03325 14.8334C9.76845 15.0457 10.5183 15.1535 11.2625 15.1535C12.0068 15.1535 12.7568 15.0457 13.4916 14.8336C14.2113 14.626 14.813 14.3859 15.2808 14.1196C15.705 13.8776 16.0694 13.6679 16.3947 13.4785C16.5545 13.3856 16.6532 13.3352 16.7086 13.3089C17.1634 13.3197 17.5822 13.3918 17.9551 13.5235C18.3578 13.6659 18.6997 13.8559 18.971 14.0876C19.2611 14.3354 19.5239 14.6431 19.7524 15.0021C19.9919 15.3782 20.1852 15.769 20.3265 16.1632C20.4742 16.5752 20.5984 17.0295 20.6956 17.5134C20.7941 18.0046 20.8608 18.4663 20.8934 18.8856V18.886C20.9269 19.3125 20.9438 19.7583 20.944 20.2113C20.9438 21.08 20.669 21.7359 20.1036 22.2163Z" fill="black"/>
</svg>
