<svg width="21" height="16" viewBox="0 0 21 16" fill="none" xmlns="http://www.w3.org/2000/svg">
<path fill-rule="evenodd" clip-rule="evenodd" d="M11.2014 2.08537C14.3932 3.92817 15.4868 8.00953 13.644 11.2014C11.8012 14.3932 7.71981 15.4868 4.52799 13.644C1.33617 11.8012 0.242576 7.71981 2.08537 4.52799C3.92817 1.33617 8.00953 0.242577 11.2014 2.08537ZM14.9787 11.2159C16.7087 7.55382 15.3664 3.11596 11.7964 1.0548C8.03537 -1.1166 3.22621 0.172006 1.0548 3.93299C-1.1166 7.69398 0.172006 12.5031 3.93299 14.6745C7.50305 16.7357 12.0176 15.6793 14.3239 12.3499C14.3315 12.3547 14.3392 12.3593 14.347 12.3638L20.017 15.6374C20.3304 15.8184 20.7312 15.711 20.9121 15.3976C21.0931 15.0842 20.9857 14.6834 20.6723 14.5025L15.0023 11.2289C14.9944 11.2244 14.9866 11.22 14.9787 11.2159Z" fill="#121212"/>
</svg>
